<svg width="96" height="64" viewBox="0 0 96 64" fill="none" xmlns="http://www.w3.org/2000/svg">
<path d="M74.6086 22.4693C74.6086 20.6209 74.9201 18.8303 75.5432 17.0975C76.1946 15.3646 77.1009 13.8339 78.262 12.5054C79.4232 11.148 80.8251 10.065 82.4678 9.25632C84.1387 8.41877 85.9796 8 87.9904 8C88.9817 8 89.9021 8.1444 90.7518 8.43321C91.6014 8.72202 92.3378 9.14079 92.9609 9.68953C93.6122 10.2383 94.1079 10.917 94.4477 11.7256C94.8159 12.5054 95 13.4007 95 14.4116C95 16.0289 94.646 17.4007 93.9379 18.5271C93.2299 19.6534 92.2387 20.5776 90.9642 21.2996C89.7181 21.9928 88.2312 22.4982 86.5036 22.8159C84.776 23.1336 82.8926 23.2924 80.8534 23.2924C81.0517 24.5054 81.4765 25.3718 82.1279 25.8917C82.8076 26.3827 83.8697 26.6282 85.3141 26.6282C86.2204 26.6282 87.1408 26.556 88.0754 26.4116C89.01 26.2383 89.888 25.9928 90.7093 25.6751L91.1766 30.7437C90.3836 31.0614 89.364 31.3502 88.1179 31.6101C86.9001 31.87 85.569 32 84.1246 32C82.3686 32 80.8818 31.7545 79.6639 31.2635C78.4744 30.7437 77.4974 30.0505 76.7327 29.1841C75.9963 28.3177 75.4582 27.3069 75.1184 26.1516C74.7785 24.9964 74.6086 23.769 74.6086 22.4693ZM86.9709 13.1119C85.5265 13.1119 84.252 13.6462 83.1475 14.7148C82.0713 15.7545 81.3632 17.1408 81.0234 18.8736C82.7793 18.8159 84.1954 18.6715 85.2716 18.4404C86.3478 18.1805 87.1833 17.8773 87.778 17.5307C88.3728 17.1841 88.7693 16.8087 88.9675 16.4043C89.1658 16 89.2649 15.5957 89.2649 15.1913C89.2649 13.8051 88.5002 13.1119 86.9709 13.1119Z" fill="url(#paint0_linear_6_275)"/>
<path d="M58.3635 31.3935C57.6271 28.5054 56.9616 25.1408 56.3668 21.2996C55.7721 17.4296 55.3614 13.1986 55.1348 8.60651H61.6771C61.7054 9.73286 61.7479 10.9747 61.8045 12.3321C61.8612 13.6607 61.932 15.0036 62.0169 16.361C62.1019 17.7184 62.201 19.0469 62.3143 20.3466C62.4276 21.6173 62.555 22.7726 62.6967 23.8123C63.3197 22.9459 64.0136 21.8773 64.7783 20.6065C65.5713 19.3357 66.336 18.0072 67.0723 16.6209C67.8087 15.2347 68.4884 13.8484 69.1115 12.4621C69.7345 11.0469 70.216 9.76174 70.5559 8.60651H77.268C76.5317 10.657 75.6112 12.7654 74.5067 14.9314C73.4305 17.0975 72.2693 19.1913 71.0232 21.213C69.777 23.2347 68.5025 25.1264 67.1998 26.8881C65.9253 28.6498 64.7358 30.1516 63.6313 31.3935H58.3635Z" fill="url(#paint1_linear_6_275)"/>
<path d="M51.4223 21.5595C51.0258 23.2057 50.9125 24.8664 51.0824 26.5415C51.2524 28.1877 51.5781 29.6606 52.0595 30.9603L46.4094 31.7834C46.2395 31.4368 46.0837 31.1047 45.9421 30.787C45.8005 30.4693 45.6589 30.1083 45.5173 29.7039C44.7243 30.3682 43.8463 30.9169 42.8834 31.3501C41.9205 31.7834 40.8442 32 39.6547 32C38.2387 32 37.0209 31.7545 36.0013 31.2635C35.01 30.7436 34.1887 30.0649 33.5373 29.2274C32.9142 28.361 32.4611 27.3646 32.1779 26.2382C31.8947 25.083 31.7531 23.8556 31.7531 22.5559C31.7531 20.5631 32.0929 18.6859 32.7726 16.9242C33.4807 15.1624 34.4436 13.6317 35.6614 12.3321C36.9076 11.0036 38.3661 9.96387 40.0371 9.21296C41.7081 8.46206 43.5206 8.08661 45.4748 8.08661C45.7297 8.08661 46.1687 8.10105 46.7917 8.12993C47.4431 8.15881 48.1795 8.23101 49.0008 8.34654C49.8221 8.43318 50.6859 8.59202 51.5922 8.82307C52.4985 9.05412 53.3623 9.37181 54.1836 9.77614L51.4223 21.5595ZM47.0042 13.5884C46.636 13.5307 46.2961 13.4873 45.9846 13.4585C45.7014 13.4296 45.3474 13.4151 44.9225 13.4151C43.9596 13.4151 43.0533 13.6606 42.2037 14.1516C41.3824 14.6426 40.6602 15.2924 40.0371 16.101C39.414 16.8808 38.9184 17.7906 38.5502 18.8303C38.2104 19.87 38.0404 20.953 38.0404 22.0794C38.0404 23.4657 38.267 24.5631 38.7201 25.3718C39.1733 26.1805 40.0088 26.5848 41.2266 26.5848C41.878 26.5848 42.4586 26.4548 42.9684 26.1949C43.5065 25.935 44.0729 25.5018 44.6676 24.8953C44.7243 24.1733 44.8092 23.4223 44.9225 22.6426C45.0641 21.8339 45.2057 21.0974 45.3474 20.4332L47.0042 13.5884Z" fill="url(#paint2_linear_6_275)"/>
<path d="M15.9537 18.0505C15.4156 19.2347 14.8067 20.4477 14.127 21.6895C13.4756 22.9025 12.7959 24.1011 12.0878 25.2852C11.4081 26.4404 10.7426 27.5524 10.0912 28.6209C9.43978 29.6607 8.85919 30.5848 8.34941 31.3935H3.42148C3.19491 30.1805 2.95418 28.7365 2.69928 27.0614C2.47271 25.3863 2.24614 23.5668 2.01957 21.6029C1.793 19.6101 1.58059 17.5163 1.38234 15.3213C1.21241 13.0975 1.08496 10.8592 1 8.60651H7.20239C7.20239 9.64622 7.20239 10.7726 7.20239 11.9856C7.23071 13.1986 7.25903 14.4549 7.28736 15.7545C7.344 17.0542 7.4148 18.3827 7.49977 19.7401C7.58473 21.0975 7.69802 22.4404 7.83962 23.769C8.54766 22.556 9.24153 21.2996 9.92125 20C10.6293 18.6715 11.2948 17.3574 11.9179 16.0578C12.5693 14.7293 13.1641 13.4296 13.7022 12.1589C14.2686 10.8881 14.7642 9.70398 15.189 8.60651H20.4568C20.4568 10.6859 20.4851 13.0108 20.5418 15.5812C20.6267 18.1516 20.8108 20.8809 21.094 23.769C21.8587 22.4693 22.5668 21.1408 23.2182 19.7834C23.8695 18.3971 24.4643 17.0397 25.0024 15.7112C25.5688 14.3827 26.0645 13.1119 26.4893 11.8989C26.9424 10.6859 27.3389 9.58846 27.6788 8.60651H34.391C33.8245 10.0506 33.1448 11.6823 32.3518 13.5018C31.5871 15.2924 30.695 17.1841 29.6754 19.1769C28.6559 21.1697 27.5089 23.2058 26.2344 25.2852C24.9599 27.3646 23.5438 29.4007 21.9862 31.3935H17.0582C16.7184 29.0253 16.4635 26.7581 16.2936 24.5921C16.1236 22.426 16.0104 20.2455 15.9537 18.0505Z" fill="url(#paint3_linear_6_275)"/>
<rect x="66" y="38" width="26" height="18" rx="4" fill="#ECECEC"/>
<path d="M78.5635 48.2607C78.5635 49.1624 78.2998 49.8737 77.7725 50.3945C77.2484 50.9121 76.5111 51.1709 75.5605 51.1709C74.61 51.1709 73.8711 50.9121 73.3438 50.3945C72.8197 49.8737 72.5576 49.1624 72.5576 48.2607C72.5576 47.3525 72.8213 46.6396 73.3486 46.1221C73.8792 45.6045 74.6165 45.3457 75.5605 45.3457C76.5176 45.3457 77.2565 45.6061 77.7773 46.127C78.3014 46.6478 78.5635 47.359 78.5635 48.2607ZM76.4004 49.5938C76.5143 49.4538 76.599 49.2861 76.6543 49.0908C76.7129 48.8923 76.7422 48.6188 76.7422 48.2705C76.7422 47.9482 76.7129 47.6781 76.6543 47.46C76.5957 47.2419 76.5143 47.0677 76.4102 46.9375C76.306 46.804 76.1807 46.7096 76.0342 46.6543C75.8877 46.599 75.7298 46.5713 75.5605 46.5713C75.3913 46.5713 75.2399 46.5941 75.1064 46.6396C74.9762 46.6852 74.8509 46.7764 74.7305 46.9131C74.623 47.04 74.5368 47.2142 74.4717 47.4355C74.4098 47.6569 74.3789 47.9352 74.3789 48.2705C74.3789 48.57 74.4066 48.8304 74.4619 49.0518C74.5173 49.2699 74.5986 49.4456 74.7061 49.5791C74.8102 49.7061 74.9339 49.7988 75.0771 49.8574C75.2236 49.916 75.3896 49.9453 75.5752 49.9453C75.7347 49.9453 75.8861 49.9193 76.0293 49.8672C76.1758 49.8118 76.2995 49.7207 76.4004 49.5938ZM85.0811 51H83.3135V48.2803C83.3135 48.0589 83.3021 47.8392 83.2793 47.6211C83.2565 47.3997 83.2174 47.237 83.1621 47.1328C83.097 47.0124 83.001 46.9245 82.874 46.8691C82.7503 46.8138 82.5762 46.7861 82.3516 46.7861C82.1921 46.7861 82.0293 46.8122 81.8633 46.8643C81.7005 46.9163 81.5231 46.9993 81.3311 47.1133V51H79.5732V45.5166H81.3311V46.1221C81.6436 45.8779 81.943 45.6908 82.2295 45.5605C82.5192 45.4303 82.8398 45.3652 83.1914 45.3652C83.7839 45.3652 84.2461 45.5378 84.5781 45.8828C84.9134 46.2279 85.0811 46.7438 85.0811 47.4307V51Z" fill="#232323"/>
<defs>
<linearGradient id="paint0_linear_6_275" x1="84.8043" y1="8" x2="84.8043" y2="32" gradientUnits="userSpaceOnUse">
<stop stop-color="#61B3FF"/>
<stop offset="1" stop-color="#0A89FF"/>
</linearGradient>
<linearGradient id="paint1_linear_6_275" x1="66.2014" y1="8.60651" x2="66.2014" y2="31.3935" gradientUnits="userSpaceOnUse">
<stop stop-color="#61B3FF"/>
<stop offset="1" stop-color="#0A89FF"/>
</linearGradient>
<linearGradient id="paint2_linear_6_275" x1="42.9684" y1="8.08661" x2="42.9684" y2="32" gradientUnits="userSpaceOnUse">
<stop stop-color="#61B3FF"/>
<stop offset="1" stop-color="#0A89FF"/>
</linearGradient>
<linearGradient id="paint3_linear_6_275" x1="17.6955" y1="8.60651" x2="17.6955" y2="31.3935" gradientUnits="userSpaceOnUse">
<stop stop-color="#61B3FF"/>
<stop offset="1" stop-color="#0A89FF"/>
</linearGradient>
</defs>
</svg>
