<svg width="54" height="36" viewBox="0 0 54 36" fill="none" xmlns="http://www.w3.org/2000/svg">
<path d="M41.9673 12.639C41.9673 11.5993 42.1425 10.5921 42.493 9.61733C42.8594 8.6426 43.3692 7.78159 44.0224 7.0343C44.6755 6.27076 45.4641 5.66155 46.3881 5.20668C47.328 4.73556 48.3635 4.5 49.4946 4.5C50.0522 4.5 50.5699 4.58123 51.0478 4.74368C51.5258 4.90614 51.94 5.1417 52.2904 5.45036C52.6569 5.75902 52.9356 6.14079 53.1268 6.59567C53.3339 7.0343 53.4375 7.53791 53.4375 8.1065C53.4375 9.01625 53.2383 9.78791 52.8401 10.4215C52.4418 11.0551 51.8842 11.5749 51.1673 11.981C50.4664 12.3709 49.63 12.6552 48.6582 12.8339C47.6864 13.0126 46.627 13.102 45.48 13.102C45.5915 13.7843 45.8305 14.2717 46.1969 14.5641C46.5792 14.8403 47.1767 14.9783 47.9891 14.9783C48.4989 14.9783 49.0167 14.9377 49.5424 14.8565C50.0681 14.759 50.562 14.6209 51.0239 14.4422L51.2868 17.2933C50.8407 17.472 50.2672 17.6345 49.5663 17.7807C48.8813 17.9269 48.1325 18 47.32 18C46.3323 18 45.496 17.8619 44.8109 17.5857C44.1418 17.2933 43.5922 16.9034 43.1621 16.4161C42.7479 15.9287 42.4452 15.3601 42.254 14.7103C42.0629 14.0605 41.9673 13.37 41.9673 12.639ZM48.9211 7.37545C48.1086 7.37545 47.3917 7.67599 46.7704 8.27708C46.1651 8.86191 45.7668 9.6417 45.5756 10.6164C46.5633 10.5839 47.3599 10.5027 47.9652 10.3727C48.5706 10.2265 49.0406 10.056 49.3751 9.86101C49.7097 9.66606 49.9327 9.45487 50.0442 9.22744C50.1557 9 50.2115 8.77256 50.2115 8.54513C50.2115 7.76534 49.7813 7.37545 48.9211 7.37545Z" fill="#333333"/>
<path d="M32.8294 17.6589C32.4152 16.0343 32.0408 14.1417 31.7063 11.9811C31.3717 9.80418 31.1408 7.42422 31.0133 4.84119H34.6933C34.7093 5.47476 34.7331 6.17332 34.765 6.93685C34.7969 7.68415 34.8367 8.43956 34.8845 9.2031C34.9323 9.96664 34.988 10.7139 35.0518 11.445C35.1155 12.1598 35.1872 12.8096 35.2668 13.3944C35.6173 12.9071 36.0076 12.306 36.4377 11.5912C36.8838 10.8764 37.3139 10.1291 37.7281 9.34931C38.1423 8.56953 38.5247 7.78974 38.8752 7.00996C39.2256 6.21393 39.4965 5.49101 39.6876 4.84119H43.4632C43.049 5.99462 42.5313 7.18054 41.91 8.39895C41.3046 9.61736 40.6514 10.7952 39.9505 11.9323C39.2495 13.0695 38.5326 14.1336 37.7998 15.1246C37.0829 16.1156 36.4138 16.9603 35.7925 17.6589H32.8294Z" fill="#333333"/>
<path d="M28.925 12.1272C28.702 13.0532 28.6383 13.9873 28.7339 14.9296C28.8294 15.8556 29.0126 16.6841 29.2835 17.4151L26.1053 17.8781C26.0097 17.6832 25.9221 17.4964 25.8424 17.3177C25.7628 17.139 25.6831 16.9359 25.6035 16.7085C25.1574 17.0821 24.6635 17.3908 24.1219 17.6344C23.5802 17.8781 22.9749 18 22.3058 18C21.5092 18 20.8242 17.8619 20.2507 17.5857C19.6931 17.2933 19.2311 16.9115 18.8647 16.4404C18.5142 15.953 18.2594 15.3926 18.1 14.759C17.9407 14.1092 17.8611 13.4187 17.8611 12.6877C17.8611 11.5668 18.0523 10.5108 18.4346 9.51983C18.8329 8.52885 19.3745 7.66784 20.0595 6.93679C20.7605 6.1895 21.5809 5.60466 22.5208 5.18228C23.4608 4.7599 24.4803 4.54871 25.5796 4.54871C25.7229 4.54871 25.9699 4.55683 26.3203 4.57308C26.6867 4.58932 27.1009 4.62993 27.5629 4.69492C28.0249 4.74365 28.5108 4.833 29.0206 4.96297C29.5304 5.09293 30.0163 5.27163 30.4783 5.49907L28.925 12.1272ZM26.4398 7.64347C26.2327 7.61098 26.0416 7.58661 25.8663 7.57037C25.707 7.55412 25.5079 7.546 25.2689 7.546C24.7273 7.546 24.2175 7.68409 23.7395 7.96026C23.2776 8.23643 22.8713 8.60196 22.5208 9.05683C22.1704 9.49546 21.8916 10.0072 21.6845 10.592C21.4933 11.1769 21.3977 11.7861 21.3977 12.4196C21.3977 13.1994 21.5252 13.8168 21.7801 14.2716C22.035 14.7265 22.5049 14.9539 23.1899 14.9539C23.5563 14.9539 23.8829 14.8808 24.1697 14.7346C24.4724 14.5884 24.791 14.3447 25.1255 14.0036C25.1574 13.5974 25.2052 13.1751 25.2689 12.7364C25.3486 12.2816 25.4282 11.8673 25.5079 11.4937L26.4398 7.64347Z" fill="#333333"/>
<path d="M8.97396 10.1535C8.67128 10.8195 8.32876 11.5018 7.94643 12.2004C7.58002 12.8827 7.19768 13.5569 6.79941 14.223C6.41707 14.8728 6.0427 15.4982 5.67629 16.0993C5.30988 16.6841 4.9833 17.204 4.69654 17.6589H1.92458C1.79714 16.9766 1.66172 16.1643 1.51835 15.2221C1.3909 14.2798 1.26346 13.2563 1.13601 12.1517C1.00856 11.0307 0.889081 9.85292 0.777566 8.61826C0.681981 7.36736 0.610292 6.10833 0.5625 4.84119H4.05135C4.05135 5.42602 4.05135 6.0596 4.05135 6.74191C4.06728 7.42422 4.08321 8.1309 4.09914 8.86194C4.131 9.59299 4.17083 10.3403 4.21862 11.1038C4.26641 11.8674 4.33013 12.6228 4.40979 13.3701C4.80806 12.6878 5.19836 11.9811 5.5807 11.25C5.97897 10.5027 6.35335 9.76357 6.70382 9.03252C7.07023 8.28523 7.40478 7.55418 7.70746 6.83938C8.02608 6.12458 8.30487 5.45851 8.54383 4.84119H11.507C11.507 6.01086 11.5229 7.31862 11.5548 8.76447C11.6025 10.2103 11.7061 11.7455 11.8654 13.3701C12.2955 12.639 12.6938 11.8917 13.0602 11.1282C13.4266 10.3484 13.7612 9.58487 14.0639 8.83758C14.3825 8.09028 14.6613 7.37548 14.9002 6.69317C15.1551 6.01086 15.3781 5.39353 15.5693 4.84119H19.3449C19.0263 5.65346 18.644 6.57133 18.1979 7.5948C17.7678 8.60202 17.2659 9.6661 16.6924 10.787C16.1189 11.908 15.4737 13.0533 14.7568 14.223C14.04 15.3926 13.2434 16.5379 12.3672 17.6589H9.59526C9.40409 16.3267 9.26072 15.0515 9.16513 13.8331C9.06955 12.6147 9.00582 11.3881 8.97396 10.1535Z" fill="#333333"/>
<rect x="37.125" y="21.375" width="14.625" height="10.125" rx="2.25" fill="#ECECEC"/>
<path d="M43.8887 26.3967C43.8887 26.9039 43.7404 27.304 43.4438 27.5969C43.149 27.8881 42.7343 28.0336 42.1996 28.0336C41.6649 28.0336 41.2493 27.8881 40.9526 27.5969C40.6578 27.304 40.5104 26.9039 40.5104 26.3967C40.5104 25.8858 40.6588 25.4848 40.9554 25.1937C41.2538 24.9025 41.6686 24.757 42.1996 24.757C42.7379 24.757 43.1536 24.9034 43.4465 25.1964C43.7413 25.4894 43.8887 25.8895 43.8887 26.3967ZM42.672 27.1465C42.7361 27.0677 42.7837 26.9734 42.8148 26.8636C42.8478 26.7519 42.8643 26.5981 42.8643 26.4022C42.8643 26.2209 42.8478 26.0689 42.8148 25.9462C42.7819 25.8235 42.7361 25.7256 42.6775 25.6523C42.6189 25.5773 42.5484 25.5242 42.466 25.493C42.3836 25.4619 42.2948 25.4464 42.1996 25.4464C42.1044 25.4464 42.0192 25.4592 41.9442 25.4848C41.8709 25.5104 41.8004 25.5617 41.7327 25.6386C41.6722 25.71 41.6237 25.808 41.5871 25.9325C41.5523 26.057 41.5349 26.2136 41.5349 26.4022C41.5349 26.5706 41.5505 26.7171 41.5816 26.8416C41.6127 26.9643 41.6585 27.0632 41.7189 27.1382C41.7775 27.2097 41.8471 27.2618 41.9277 27.2948C42.0101 27.3278 42.1035 27.3442 42.2078 27.3442C42.2975 27.3442 42.3827 27.3296 42.4633 27.3003C42.5457 27.2692 42.6152 27.2179 42.672 27.1465ZM46.4562 24.3889H46.3821C46.3381 24.3761 46.2805 24.3615 46.209 24.345C46.1395 24.3285 46.0644 24.3203 45.9838 24.3203C45.7897 24.3203 45.6579 24.355 45.5883 24.4246C45.5206 24.4942 45.4867 24.6288 45.4867 24.8284V24.8531H46.2502V25.5233H45.5197V27.9375H44.5309V25.5233H44.1079V24.8531H44.5309V24.7679C44.5309 24.3907 44.6307 24.1078 44.8303 23.9193C45.0317 23.7307 45.3356 23.6364 45.7421 23.6364C45.8886 23.6364 46.0214 23.6418 46.1404 23.6528C46.2594 23.662 46.3647 23.6748 46.4562 23.6913V24.3889ZM48.6942 24.3889H48.62C48.576 24.3761 48.5184 24.3615 48.447 24.345C48.3774 24.3285 48.3023 24.3203 48.2217 24.3203C48.0276 24.3203 47.8958 24.355 47.8262 24.4246C47.7585 24.4942 47.7246 24.6288 47.7246 24.8284V24.8531H48.4882V25.5233H47.7576V27.9375H46.7688V25.5233H46.3458V24.8531H46.7688V24.7679C46.7688 24.3907 46.8686 24.1078 47.0682 23.9193C47.2696 23.7307 47.5735 23.6364 47.98 23.6364C48.1265 23.6364 48.2593 23.6418 48.3783 23.6528C48.4973 23.662 48.6026 23.6748 48.6942 23.6913V24.3889Z" fill="#232323"/>
</svg>
