<svg width="122" height="51" viewBox="0 0 122 51" fill="none" xmlns="http://www.w3.org/2000/svg">
<path d="M119.81 22.672C118.829 23.5253 117.549 24.6987 115.97 26.192C114.392 27.6427 112.685 29.264 110.85 31.056C109.016 32.8053 107.138 34.6613 105.218 36.624C103.298 38.544 101.506 40.4 99.8425 42.192H115.458L113.538 50H86.4025L87.7465 44.432C88.9838 42.896 90.3918 41.232 91.9705 39.44C93.5918 37.648 95.2558 35.8347 96.9625 34C98.7118 32.1653 100.44 30.416 102.146 28.752C103.896 27.0453 105.517 25.5093 107.01 24.144H93.3145L95.2345 16.336H121.346L119.81 22.672Z" fill="#333333"/>
<path d="M72.757 7.95202L82.677 6.41602L80.245 16.336H90.869L88.949 24.144H78.389L75.573 35.92C75.317 36.9014 75.1463 37.8187 75.061 38.672C75.0183 39.5254 75.125 40.272 75.381 40.912C75.6797 41.5093 76.1703 41.9787 76.853 42.32C77.5357 42.6614 78.4743 42.832 79.669 42.832C80.693 42.832 81.6743 42.7467 82.613 42.576C83.5943 42.3627 84.5757 42.0854 85.557 41.744L86.261 49.04C84.981 49.5094 83.5943 49.9147 82.101 50.256C80.6077 50.5974 78.837 50.768 76.789 50.768C73.845 50.768 71.5623 50.3414 69.941 49.488C68.3197 48.592 67.1677 47.3974 66.485 45.904C65.8023 44.368 65.5037 42.6187 65.589 40.656C65.6743 38.6934 65.973 36.624 66.485 34.448L72.757 7.95202Z" fill="#333333"/>
<path d="M58.952 50H49.48L57.48 16.336H67.016L58.952 50ZM63.56 12.24C62.2373 12.24 61.0426 11.856 59.976 11.088C58.9093 10.2773 58.376 9.06135 58.376 7.44001C58.376 6.54401 58.5466 5.71201 58.888 4.94401C59.272 4.13335 59.7626 3.45068 60.36 2.89601C60.9573 2.29868 61.64 1.82935 62.408 1.48801C63.2187 1.14668 64.072 0.976013 64.968 0.976013C66.2907 0.976013 67.4853 1.38135 68.552 2.19201C69.6186 2.96001 70.152 4.15468 70.152 5.77601C70.152 6.67201 69.96 7.52535 69.576 8.33601C69.2347 9.10401 68.7653 9.78668 68.168 10.384C67.5706 10.9387 66.8666 11.3867 66.056 11.728C65.288 12.0693 64.456 12.24 63.56 12.24Z" fill="#333333"/>
<path d="M47.2445 50.64C44.2152 50.64 41.8258 50.256 40.0765 49.488C38.3698 48.6773 37.1325 47.5893 36.3645 46.224C35.6392 44.8587 35.2765 43.3013 35.2765 41.552C35.3192 39.76 35.5752 37.8613 36.0445 35.856L44.1725 1.872L54.0925 0.335999L45.1965 37.2C45.0258 37.968 44.9192 38.672 44.8765 39.312C44.8765 39.952 45.0045 40.528 45.2605 41.04C45.5165 41.5093 45.9432 41.8933 46.5405 42.192C47.1805 42.4907 48.0552 42.6827 49.1645 42.768L47.2445 50.64Z" fill="#333333"/>
<path d="M0.799988 50L11.424 5.64801H40.16L38.112 13.904H19.36L17.12 23.376H33.696L31.712 31.632H15.136L10.72 50H0.799988Z" fill="#333333"/>
</svg>
