<svg width="44" height="24" viewBox="0 0 44 24" fill="none" xmlns="http://www.w3.org/2000/svg">
<mask id="path-1-outside-1_6_645" maskUnits="userSpaceOnUse" x="0" y="0" width="44" height="24" fill="black">
<rect fill="white" width="44" height="24"/>
<path d="M42 2H35.3333C35.3333 5.57576 34.1389 8.59151 31.75 11.0473C29.3611 13.5006 26.5 14.7273 23.1667 14.7273C21.1667 14.7273 19.3056 14.2279 17.5833 13.2291C15.8611 12.2279 14.4444 10.9091 13.3333 9.27273H18.6667L18.6667 2H2V20.1818H8.66667V14.5455C10.4444 16.8485 12.5689 18.6667 15.04 20C17.5133 21.3333 20.2222 22 23.1667 22C28.4444 22 32.9022 20.0606 36.54 16.1818C40.18 12.303 42 7.57576 42 2Z"/>
</mask>
<path d="M42 2H35.3333C35.3333 5.57576 34.1389 8.59151 31.75 11.0473C29.3611 13.5006 26.5 14.7273 23.1667 14.7273C21.1667 14.7273 19.3056 14.2279 17.5833 13.2291C15.8611 12.2279 14.4444 10.9091 13.3333 9.27273H18.6667L18.6667 2H2V20.1818H8.66667V14.5455C10.4444 16.8485 12.5689 18.6667 15.04 20C17.5133 21.3333 20.2222 22 23.1667 22C28.4444 22 32.9022 20.0606 36.54 16.1818C40.18 12.303 42 7.57576 42 2Z" fill="url(#paint0_linear_6_645)"/>
<path d="M42 2H35.3333C35.3333 5.57576 34.1389 8.59151 31.75 11.0473C29.3611 13.5006 26.5 14.7273 23.1667 14.7273C21.1667 14.7273 19.3056 14.2279 17.5833 13.2291C15.8611 12.2279 14.4444 10.9091 13.3333 9.27273H18.6667L18.6667 2H2V20.1818H8.66667V14.5455C10.4444 16.8485 12.5689 18.6667 15.04 20C17.5133 21.3333 20.2222 22 23.1667 22C28.4444 22 32.9022 20.0606 36.54 16.1818C40.18 12.303 42 7.57576 42 2Z" stroke="#4A4A4A" stroke-width="4" mask="url(#path-1-outside-1_6_645)"/>
<defs>
<linearGradient id="paint0_linear_6_645" x1="22" y1="22" x2="22" y2="2" gradientUnits="userSpaceOnUse">
<stop stop-color="#55E9C9"/>
<stop offset="1" stop-color="#8CF272"/>
</linearGradient>
</defs>
</svg>
