<svg width="40" height="20" viewBox="0 0 40 20" fill="none" xmlns="http://www.w3.org/2000/svg">
<path d="M40 -5.96046e-07H33.3333C33.3333 3.57576 32.1389 6.59151 29.75 9.04727C27.3611 11.5006 24.5 12.7273 21.1667 12.7273C19.1667 12.7273 17.3056 12.2279 15.5833 11.2291C13.8611 10.2279 12.4444 8.90909 11.3333 7.27273H16.6667L16.6667 -5.96046e-07H9.53674e-07V18.1818H6.66667V12.5455C8.44445 14.8485 10.5689 16.6667 13.04 18C15.5133 19.3333 18.2222 20 21.1667 20C26.4444 20 30.9022 18.0606 34.54 14.1818C38.18 10.303 40 5.57576 40 -5.96046e-07Z" fill="url(#paint0_linear_33_1155)"/>
<defs>
<linearGradient id="paint0_linear_33_1155" x1="20" y1="20" x2="20" y2="0" gradientUnits="userSpaceOnUse">
<stop stop-color="#55E9C9"/>
<stop offset="1" stop-color="#8CF272"/>
</linearGradient>
</defs>
</svg>
