<svg width="24" height="24" viewBox="0 0 24 24" fill="none" xmlns="http://www.w3.org/2000/svg">
<path d="M3 7L3 17C3 19.2091 4.79086 21 7 21L17 21C19.2091 21 21 19.2091 21 17L21 9L15 3L7 3C4.79086 3 3 4.79086 3 7Z" stroke="white" stroke-width="1.4" stroke-linejoin="round"/>
<path d="M21 9L19 9C16.7909 9 15 7.20914 15 5L15 3" stroke="white" stroke-width="1.4" stroke-linejoin="round"/>
<path d="M15 3L21 9" stroke="white" stroke-width="1.4" stroke-linecap="round" stroke-linejoin="round"/>
<path d="M9.42937 10.7562C9.60898 10.2034 10.391 10.2034 10.5706 10.7562L10.9879 12.0403C11.0682 12.2875 11.2986 12.4549 11.5585 12.4549H12.9087C13.4899 12.4549 13.7316 13.1987 13.2613 13.5403L12.169 14.3339C11.9587 14.4867 11.8707 14.7575 11.9511 15.0048L12.3683 16.2889C12.5479 16.8416 11.9152 17.3013 11.445 16.9597L10.3527 16.1661C10.1424 16.0133 9.85762 16.0133 9.64733 16.1661L8.55501 16.9597C8.08478 17.3013 7.4521 16.8416 7.63171 16.2889L8.04894 15.0048C8.12926 14.7575 8.04126 14.4867 7.83097 14.3339L6.73866 13.5403C6.26843 13.1987 6.51009 12.4549 7.09133 12.4549H8.4415C8.70144 12.4549 8.93181 12.2875 9.01214 12.0403L9.42937 10.7562Z" fill="white"/>
</svg>
