<svg width="42" height="42" viewBox="0 0 42 42" fill="none" xmlns="http://www.w3.org/2000/svg">
<rect width="42" height="42" rx="4" fill="#CDE7FF" fill-opacity="0.2"/>
<path d="M30.8057 24.5648L29.0732 22.5988C29.1446 21.9618 29.1446 21.3065 29.0732 20.6511L30.8057 18.6852C31.0558 18.3212 31.0736 17.8297 30.8057 17.4657L29.484 15.1539C29.2875 14.7534 28.8589 14.5168 28.4302 14.5532L25.8761 15.0811C25.3581 14.6988 24.8044 14.3712 24.1971 14.1163L23.3755 11.6226C23.179 11.2221 22.7682 10.9673 22.3217 11.0037H19.6783C19.2318 10.9673 18.821 11.2039 18.6245 11.6226L17.8029 14.1163C17.2135 14.3712 16.6419 14.6988 16.1239 15.0811L13.5698 14.5532C13.1233 14.5168 12.7125 14.7534 12.516 15.1539L11.1943 17.4657C10.9442 17.8297 10.9442 18.3212 11.1943 18.6852L12.9268 20.6511C12.8554 21.2882 12.8554 21.9435 12.9268 22.5988L11.1943 24.5648C10.9442 24.9288 10.9264 25.4203 11.1943 25.7843L12.516 28.0961C12.7125 28.4966 13.1411 28.7332 13.5698 28.6968L16.1239 28.1689C16.6419 28.5512 17.1956 28.8788 17.8029 29.1337L18.6245 31.6274C18.821 32.0279 19.2318 32.2827 19.6783 32.2463H22.3217C22.7682 32.2827 23.179 32.0461 23.3755 31.6274L24.1971 29.1337C24.7865 28.8788 25.3581 28.5512 25.8761 28.1689L28.4302 28.6968C28.8767 28.7332 29.2875 28.4966 29.484 28.0961L30.8057 25.7843C31.0558 25.4203 31.0558 24.9288 30.8057 24.5648ZM20.9464 25.7115C18.7316 25.6751 16.9634 23.8366 16.9813 21.5613C17.017 19.3041 18.8388 17.5021 21.0536 17.5203C23.2505 17.5567 25.0187 19.377 25.0187 21.6159C25.0187 23.8912 23.179 25.7297 20.9464 25.7115Z" fill="#6F9EC9"/>
</svg>
