<svg width="44" height="42" viewBox="0 0 44 42" fill="none" xmlns="http://www.w3.org/2000/svg">
<path d="M21.3268 39.4395L21.9974 40.05L22.6704 39.442L25.5704 36.822L25.5725 36.8201L25.7018 36.7026C30.7751 32.0924 35.0674 28.1919 38.0868 24.4979C41.1432 20.7585 43 17.1085 43 13C43 6.28772 37.7123 1 31 1C27.6031 1 24.3416 2.41602 22 4.71475C19.6584 2.41602 16.3969 1 13 1C6.28772 1 1 6.28772 1 13C1 17.1085 2.85676 20.7585 5.91345 24.4956C8.94331 28.1999 13.2547 32.1094 18.3508 36.7305L18.4268 36.7995L18.4283 36.8008L21.3268 39.4395Z" fill="url(#paint0_linear_6_618)" stroke="#4A4A4A" stroke-width="2"/>
<defs>
<linearGradient id="paint0_linear_6_618" x1="22" y1="2" x2="22" y2="38.7" gradientUnits="userSpaceOnUse">
<stop stop-color="#FA007D"/>
<stop offset="1" stop-color="#D31474"/>
</linearGradient>
</defs>
</svg>
