<svg width="180" height="100" viewBox="0 0 180 100" fill="none" xmlns="http://www.w3.org/2000/svg">
<g opacity="0.95">
<path d="M177.707 33.6595C176.242 34.9455 174.33 36.7137 171.973 38.9641C169.616 41.1502 167.068 43.5936 164.328 46.2941C161.588 48.9303 158.785 51.7272 155.918 54.6849C153.051 57.5783 150.376 60.3753 147.891 63.0758H171.209L168.342 74.8423H127.822L129.829 66.4514C131.677 64.1367 133.779 61.6291 136.136 58.9286C138.557 56.2281 141.042 53.4954 143.59 50.7306C146.203 47.9658 148.783 45.3296 151.331 42.822C153.943 40.2501 156.364 37.9353 158.594 35.8778H138.143L141.01 24.1113H180.001L177.707 33.6595Z" fill="url(#paint0_linear_504_9569)"/>
<path d="M107.447 11.4749L122.26 9.16016L118.628 24.1094H134.492L131.625 35.8759H115.857L111.652 53.6221C111.27 55.1009 111.015 56.4833 110.887 57.7693C110.824 59.0552 110.983 60.1804 111.365 61.1449C111.811 62.0451 112.544 62.7524 113.563 63.2667C114.583 63.7811 115.984 64.0383 117.768 64.0383C119.297 64.0383 120.763 63.9097 122.164 63.6525C123.629 63.331 125.095 62.9131 126.56 62.3987L127.611 73.3936C125.7 74.1009 123.629 74.7117 121.4 75.2261C119.17 75.7405 116.526 75.9977 113.468 75.9977C109.072 75.9977 105.663 75.3547 103.242 74.0688C100.821 72.7185 99.1012 70.9182 98.0818 68.6677C97.0624 66.353 96.6165 63.7168 96.7439 60.7591C96.8713 57.8014 97.3173 54.683 98.0818 51.4038L107.447 11.4749Z" fill="url(#paint1_linear_504_9569)"/>
<path d="M86.8321 74.843H72.6885L84.6341 24.112H98.8732L86.8321 74.843ZM93.7127 17.9395C91.7377 17.9395 89.9539 17.3608 88.3611 16.2034C86.7684 14.9818 85.972 13.1493 85.972 10.706C85.972 9.3557 86.2268 8.10189 86.7365 6.94453C87.3099 5.72288 88.0426 4.69411 88.9345 3.85824C89.8264 2.95807 90.8458 2.2508 91.9926 1.73642C93.2031 1.22204 94.4773 0.964844 95.8152 0.964844C97.7902 0.964844 99.574 1.57567 101.167 2.79733C102.76 3.95469 103.556 5.75503 103.556 8.19834C103.556 9.5486 103.269 10.8346 102.696 12.0562C102.186 13.2136 101.485 14.2423 100.593 15.1425C99.7015 15.9784 98.6502 16.6535 97.4398 17.1679C96.293 17.6823 95.0506 17.9395 93.7127 17.9395Z" fill="url(#paint2_linear_504_9569)"/>
<path d="M69.3511 75.8071C64.8277 75.8071 61.2599 75.2284 58.6478 74.071C56.0994 72.8494 54.2518 71.2098 53.1051 69.1523C52.022 67.0947 51.4805 64.7479 51.4805 62.1117C51.5442 59.4111 51.9264 56.5499 52.6272 53.5279L64.764 2.31472L79.5765 0L66.293 55.5533C66.0382 56.7106 65.8789 57.7716 65.8152 58.736C65.8152 59.7005 66.0063 60.5685 66.3886 61.3401C66.7708 62.0474 67.4079 62.626 68.2999 63.0761C69.2555 63.5262 70.5616 63.8155 72.218 63.9441L69.3511 75.8071Z" fill="url(#paint3_linear_504_9569)"/>
<path d="M0 74.8414L15.8638 8.00391H58.7724L55.7143 20.4455H27.7138L24.369 34.7196H49.1203L46.1578 47.1613H21.4065L14.8125 74.8414H0Z" fill="url(#paint4_linear_504_9569)"/>
</g>
<path d="M106.749 85.477C106.885 85.9417 107.033 86.4687 107.191 87.058C107.361 87.636 107.537 88.2367 107.718 88.86C107.911 89.4833 108.104 90.1067 108.296 90.73C108.489 91.3533 108.676 91.9313 108.857 92.464C109.005 91.886 109.152 91.257 109.299 90.577C109.458 89.897 109.605 89.1943 109.741 88.469C109.877 87.7437 110.008 87.024 110.132 86.31C110.268 85.5847 110.393 84.8877 110.506 84.219H113.26C112.864 86.191 112.405 88.1913 111.883 90.22C111.373 92.2487 110.818 94.1753 110.217 96H107.786C107.39 94.912 107.004 93.773 106.63 92.583C106.256 91.3817 105.888 90.1803 105.525 88.979C105.163 90.1803 104.8 91.3817 104.437 92.583C104.075 93.773 103.695 94.912 103.298 96H100.867C100.267 94.1753 99.7058 92.2487 99.1845 90.22C98.6745 88.1913 98.2212 86.191 97.8245 84.219H100.697C100.811 84.8877 100.935 85.5847 101.071 86.31C101.207 87.024 101.349 87.7437 101.496 88.469C101.644 89.1943 101.791 89.897 101.938 90.577C102.097 91.257 102.256 91.886 102.414 92.464C102.618 91.9087 102.817 91.3193 103.009 90.696C103.202 90.0727 103.389 89.4493 103.57 88.826C103.752 88.2027 103.916 87.602 104.063 87.024C104.222 86.446 104.364 85.9303 104.488 85.477H106.749ZM117.39 94.232C117.639 94.232 117.877 94.2263 118.104 94.215C118.331 94.2037 118.512 94.1867 118.648 94.164V92.243C118.546 92.2203 118.393 92.1977 118.189 92.175C117.985 92.1523 117.798 92.141 117.628 92.141C117.39 92.141 117.163 92.158 116.948 92.192C116.744 92.2147 116.563 92.2657 116.404 92.345C116.245 92.4243 116.121 92.532 116.03 92.668C115.939 92.804 115.894 92.974 115.894 93.178C115.894 93.5747 116.024 93.8523 116.285 94.011C116.557 94.1583 116.925 94.232 117.39 94.232ZM117.186 86.82C117.934 86.82 118.557 86.905 119.056 87.075C119.555 87.245 119.951 87.4887 120.246 87.806C120.552 88.1233 120.767 88.5087 120.892 88.962C121.017 89.4153 121.079 89.9197 121.079 90.475V95.745C120.716 95.8243 120.212 95.915 119.566 96.017C118.92 96.1303 118.138 96.187 117.22 96.187C116.642 96.187 116.115 96.136 115.639 96.034C115.174 95.932 114.772 95.7677 114.432 95.541C114.092 95.303 113.831 94.997 113.65 94.623C113.469 94.249 113.378 93.79 113.378 93.246C113.378 92.7247 113.48 92.2827 113.684 91.92C113.899 91.5573 114.183 91.2683 114.534 91.053C114.885 90.8377 115.288 90.6847 115.741 90.594C116.194 90.492 116.665 90.441 117.152 90.441C117.481 90.441 117.77 90.458 118.019 90.492C118.28 90.5147 118.489 90.5487 118.648 90.594V90.356C118.648 89.9253 118.518 89.5797 118.257 89.319C117.996 89.0583 117.543 88.928 116.897 88.928C116.466 88.928 116.041 88.962 115.622 89.03C115.203 89.0867 114.84 89.1717 114.534 89.285L114.211 87.245C114.358 87.1997 114.54 87.1543 114.755 87.109C114.982 87.0523 115.225 87.007 115.486 86.973C115.747 86.9277 116.019 86.8937 116.302 86.871C116.597 86.837 116.891 86.82 117.186 86.82ZM125.245 96C124.667 94.8667 124.077 93.5407 123.477 92.022C122.887 90.5033 122.326 88.8487 121.794 87.058H124.48C124.593 87.5 124.723 87.9817 124.871 88.503C125.029 89.013 125.188 89.5343 125.347 90.067C125.517 90.5883 125.681 91.0983 125.84 91.597C126.01 92.0957 126.174 92.549 126.333 92.957C126.48 92.549 126.639 92.0957 126.809 91.597C126.979 91.0983 127.143 90.5883 127.302 90.067C127.472 89.5343 127.63 89.013 127.778 88.503C127.936 87.9817 128.072 87.5 128.186 87.058H130.804C130.271 88.8487 129.704 90.5033 129.104 92.022C128.514 93.5407 127.931 94.8667 127.353 96H125.245ZM131.163 91.597C131.163 90.8037 131.282 90.1123 131.52 89.523C131.769 88.9223 132.092 88.4237 132.489 88.027C132.886 87.6303 133.339 87.33 133.849 87.126C134.37 86.922 134.903 86.82 135.447 86.82C136.716 86.82 137.719 87.211 138.456 87.993C139.193 88.7637 139.561 89.9027 139.561 91.41C139.561 91.5573 139.555 91.7217 139.544 91.903C139.533 92.073 139.521 92.226 139.51 92.362H133.764C133.821 92.8833 134.064 93.297 134.495 93.603C134.926 93.909 135.504 94.062 136.229 94.062C136.694 94.062 137.147 94.0223 137.589 93.943C138.042 93.8523 138.411 93.7447 138.694 93.62L139.034 95.677C138.898 95.745 138.717 95.813 138.49 95.881C138.263 95.949 138.008 96.0057 137.725 96.051C137.453 96.1077 137.158 96.153 136.841 96.187C136.524 96.221 136.206 96.238 135.889 96.238C135.084 96.238 134.382 96.119 133.781 95.881C133.192 95.643 132.699 95.32 132.302 94.912C131.917 94.4927 131.628 93.9997 131.435 93.433C131.254 92.8663 131.163 92.2543 131.163 91.597ZM137.113 90.628C137.102 90.4127 137.062 90.203 136.994 89.999C136.937 89.795 136.841 89.6137 136.705 89.455C136.58 89.2963 136.416 89.166 136.212 89.064C136.019 88.962 135.776 88.911 135.481 88.911C135.198 88.911 134.954 88.962 134.75 89.064C134.546 89.1547 134.376 89.2793 134.24 89.438C134.104 89.5967 133.996 89.7837 133.917 89.999C133.849 90.203 133.798 90.4127 133.764 90.628H137.113ZM144.559 93.977C144.933 93.977 145.239 93.9487 145.477 93.892C145.726 93.824 145.924 93.739 146.072 93.637C146.219 93.5237 146.321 93.3933 146.378 93.246C146.434 93.0987 146.463 92.9343 146.463 92.753C146.463 92.3677 146.281 92.0503 145.919 91.801C145.556 91.5403 144.933 91.2627 144.049 90.968C143.663 90.832 143.278 90.679 142.893 90.509C142.507 90.3277 142.162 90.1067 141.856 89.846C141.55 89.574 141.3 89.251 141.108 88.877C140.915 88.4917 140.819 88.027 140.819 87.483C140.819 86.939 140.921 86.4517 141.125 86.021C141.329 85.579 141.618 85.205 141.992 84.899C142.366 84.593 142.819 84.3607 143.352 84.202C143.884 84.032 144.485 83.947 145.154 83.947C145.947 83.947 146.633 84.032 147.211 84.202C147.789 84.372 148.265 84.559 148.639 84.763L147.874 86.854C147.545 86.684 147.177 86.5367 146.769 86.412C146.372 86.276 145.89 86.208 145.324 86.208C144.689 86.208 144.23 86.2987 143.947 86.48C143.675 86.65 143.539 86.9163 143.539 87.279C143.539 87.4943 143.59 87.6757 143.692 87.823C143.794 87.9703 143.935 88.1063 144.117 88.231C144.309 88.3443 144.525 88.452 144.763 88.554C145.012 88.6447 145.284 88.741 145.579 88.843C146.191 89.0697 146.723 89.2963 147.177 89.523C147.63 89.7383 148.004 89.9933 148.299 90.288C148.605 90.5827 148.831 90.9283 148.979 91.325C149.126 91.7217 149.2 92.2033 149.2 92.77C149.2 93.8693 148.814 94.725 148.044 95.337C147.273 95.9377 146.111 96.238 144.559 96.238C144.037 96.238 143.567 96.204 143.148 96.136C142.728 96.0793 142.354 96.0057 142.026 95.915C141.708 95.8243 141.431 95.728 141.193 95.626C140.966 95.524 140.773 95.4277 140.615 95.337L141.363 93.229C141.714 93.4217 142.145 93.5973 142.655 93.756C143.176 93.9033 143.811 93.977 144.559 93.977ZM156.459 91.597C156.459 90.815 156.284 90.1917 155.932 89.727C155.581 89.251 155.06 89.013 154.368 89.013C154.142 89.013 153.932 89.0243 153.739 89.047C153.547 89.0583 153.388 89.0753 153.263 89.098V93.671C153.422 93.773 153.626 93.858 153.875 93.926C154.136 93.994 154.397 94.028 154.657 94.028C155.859 94.028 156.459 93.2177 156.459 91.597ZM159.043 91.529C159.043 92.2203 158.958 92.8493 158.788 93.416C158.618 93.9827 158.369 94.47 158.04 94.878C157.712 95.286 157.304 95.6033 156.816 95.83C156.329 96.0567 155.768 96.17 155.133 96.17C154.782 96.17 154.453 96.136 154.147 96.068C153.841 96 153.547 95.9037 153.263 95.779V99.145H150.73V87.364C150.957 87.296 151.218 87.2337 151.512 87.177C151.807 87.109 152.113 87.0523 152.43 87.007C152.759 86.9617 153.088 86.9277 153.416 86.905C153.756 86.871 154.079 86.854 154.385 86.854C155.122 86.854 155.779 86.9673 156.357 87.194C156.935 87.4093 157.423 87.721 157.819 88.129C158.216 88.5257 158.516 89.013 158.72 89.591C158.936 90.169 159.043 90.815 159.043 91.529ZM169.014 91.512C169.014 92.2147 168.912 92.8607 168.708 93.45C168.504 94.028 168.209 94.5267 167.824 94.946C167.439 95.354 166.974 95.6713 166.43 95.898C165.897 96.1247 165.297 96.238 164.628 96.238C163.971 96.238 163.37 96.1247 162.826 95.898C162.293 95.6713 161.834 95.354 161.449 94.946C161.064 94.5267 160.763 94.028 160.548 93.45C160.333 92.8607 160.225 92.2147 160.225 91.512C160.225 90.8093 160.333 90.169 160.548 89.591C160.775 89.013 161.081 88.52 161.466 88.112C161.863 87.704 162.327 87.3867 162.86 87.16C163.404 86.9333 163.993 86.82 164.628 86.82C165.274 86.82 165.863 86.9333 166.396 87.16C166.94 87.3867 167.405 87.704 167.79 88.112C168.175 88.52 168.476 89.013 168.691 89.591C168.906 90.169 169.014 90.8093 169.014 91.512ZM166.43 91.512C166.43 90.73 166.271 90.118 165.954 89.676C165.648 89.2227 165.206 88.996 164.628 88.996C164.05 88.996 163.602 89.2227 163.285 89.676C162.968 90.118 162.809 90.73 162.809 91.512C162.809 92.294 162.968 92.9173 163.285 93.382C163.602 93.8353 164.05 94.062 164.628 94.062C165.206 94.062 165.648 93.8353 165.954 93.382C166.271 92.9173 166.43 92.294 166.43 91.512ZM170.551 84.831L173.084 84.423V87.058H176.127V89.166H173.084V92.311C173.084 92.8437 173.175 93.2687 173.356 93.586C173.549 93.9033 173.929 94.062 174.495 94.062C174.767 94.062 175.045 94.0393 175.328 93.994C175.623 93.9373 175.889 93.8637 176.127 93.773L176.484 95.745C176.178 95.8697 175.838 95.9773 175.464 96.068C175.09 96.1587 174.631 96.204 174.087 96.204C173.396 96.204 172.824 96.1133 172.37 95.932C171.917 95.7393 171.554 95.4787 171.282 95.15C171.01 94.81 170.818 94.402 170.704 93.926C170.602 93.45 170.551 92.923 170.551 92.345V84.831Z" fill="#1D1632"/>
<defs>
<linearGradient id="paint0_linear_504_9569" x1="153.911" y1="24.1113" x2="153.911" y2="74.8423" gradientUnits="userSpaceOnUse">
<stop stop-color="#181032"/>
<stop offset="1" stop-color="#09031B"/>
</linearGradient>
<linearGradient id="paint1_linear_504_9569" x1="115.607" y1="9.16016" x2="115.607" y2="75.9977" gradientUnits="userSpaceOnUse">
<stop stop-color="#181032"/>
<stop offset="1" stop-color="#09031B"/>
</linearGradient>
<linearGradient id="paint2_linear_504_9569" x1="88.1222" y1="0.964844" x2="88.1222" y2="74.843" gradientUnits="userSpaceOnUse">
<stop stop-color="#181032"/>
<stop offset="1" stop-color="#09031B"/>
</linearGradient>
<linearGradient id="paint3_linear_504_9569" x1="65.5285" y1="0" x2="65.5285" y2="75.8071" gradientUnits="userSpaceOnUse">
<stop stop-color="#181032"/>
<stop offset="1" stop-color="#09031B"/>
</linearGradient>
<linearGradient id="paint4_linear_504_9569" x1="29.3862" y1="8.00391" x2="29.3862" y2="74.8414" gradientUnits="userSpaceOnUse">
<stop stop-color="#181032"/>
<stop offset="1" stop-color="#09031B"/>
</linearGradient>
</defs>
</svg>
