<svg width="38" height="38" viewBox="0 0 38 38" fill="none" xmlns="http://www.w3.org/2000/svg">
<rect x="1" y="1" width="36" height="36" rx="18" fill="#383734" stroke="white" stroke-width="2"/>
<path fill-rule="evenodd" clip-rule="evenodd" d="M15 12C15 10.8954 15.8954 10 17 10H21C22.1046 10 23 10.8954 23 12V13H26C27.1046 13 28 13.8954 28 15V25C28 26.1046 27.1046 27 26 27H12C10.8954 27 10 26.1046 10 25V15C10 13.8954 10.8954 13 12 13H15V12ZM19 23C20.6569 23 22 21.6569 22 20C22 18.3431 20.6569 17 19 17C17.3431 17 16 18.3431 16 20C16 21.6569 17.3431 23 19 23Z" fill="white"/>
</svg>
