<svg width="24" height="24" viewBox="0 0 24 24" fill="none" xmlns="http://www.w3.org/2000/svg">
<path d="M18.753 9C21.2108 9 23 10.3592 23 12.6893V18.7573H21.3374L21.247 17.5113C20.6687 18.4175 19.5663 19 18.1386 19H17.4337C15.4639 19 14 17.754 14 15.9903C14 14.2913 15.4277 13.0777 18.0301 13.0777H21.2108V12.7702C21.2108 11.411 20.3434 10.4887 18.6265 10.4887C17.4157 10.4887 16.5301 10.9903 16.0422 11.8317L14.4157 11.1845C15.1747 9.92233 16.7831 9 18.753 9ZM17.7771 17.5113H18.4639C19.8012 17.5113 21.0482 16.7994 21.2108 15.6181V14.5016H18.1024C16.5301 14.5016 15.7892 15.1003 15.7892 16.0065C15.7892 16.9288 16.5843 17.5113 17.7771 17.5113Z" fill="white"/>
<path d="M14 19H12.1377L10.4725 14.6099H4.52755L2.84435 19H1L6.38981 5H8.61019L14 19ZM7.5 6.8321L5.11846 13.037H9.86364L7.5 6.8321Z" fill="white"/>
</svg>
