<svg width="122" height="52" viewBox="0 0 122 52" fill="none" xmlns="http://www.w3.org/2000/svg">
<path d="M119.81 23.104C118.829 23.9573 117.549 25.1307 115.97 26.624C114.392 28.0747 112.685 29.696 110.85 31.488C109.016 33.2373 107.138 35.0933 105.218 37.056C103.298 38.976 101.506 40.832 99.8425 42.624H115.458L113.538 50.432H86.4025L87.7465 44.864C88.9838 43.328 90.3918 41.664 91.9705 39.872C93.5918 38.08 95.2558 36.2667 96.9625 34.432C98.7118 32.5973 100.44 30.848 102.146 29.184C103.896 27.4773 105.517 25.9413 107.01 24.576H93.3145L95.2345 16.768H121.346L119.81 23.104Z" fill="white"/>
<path d="M72.757 8.38403L82.677 6.84802L80.245 16.768H90.869L88.949 24.576H78.389L75.573 36.352C75.317 37.3334 75.1463 38.2507 75.061 39.104C75.0183 39.9574 75.125 40.704 75.381 41.344C75.6797 41.9414 76.1703 42.4107 76.853 42.752C77.5357 43.0934 78.4743 43.264 79.669 43.264C80.693 43.264 81.6743 43.1787 82.613 43.008C83.5943 42.7947 84.5757 42.5174 85.557 42.176L86.261 49.472C84.981 49.9414 83.5943 50.3467 82.101 50.688C80.6077 51.0294 78.837 51.2 76.789 51.2C73.845 51.2 71.5623 50.7734 69.941 49.92C68.3197 49.024 67.1677 47.8294 66.485 46.336C65.8023 44.8 65.5037 43.0507 65.589 41.088C65.6743 39.1254 65.973 37.056 66.485 34.88L72.757 8.38403Z" fill="white"/>
<path d="M58.952 50.432H49.48L57.48 16.768H67.016L58.952 50.432ZM63.56 12.672C62.2373 12.672 61.0426 12.288 59.976 11.52C58.9093 10.7094 58.376 9.49335 58.376 7.87202C58.376 6.97602 58.5466 6.14402 58.888 5.37602C59.272 4.56535 59.7626 3.88269 60.36 3.32802C60.9573 2.73068 61.64 2.26135 62.408 1.92002C63.2187 1.57869 64.072 1.40802 64.968 1.40802C66.2907 1.40802 67.4853 1.81335 68.552 2.62402C69.6186 3.39202 70.152 4.58669 70.152 6.20802C70.152 7.10402 69.96 7.95735 69.576 8.76802C69.2347 9.53602 68.7653 10.2187 68.168 10.816C67.5706 11.3707 66.8666 11.8187 66.056 12.16C65.288 12.5014 64.456 12.672 63.56 12.672Z" fill="white"/>
<path d="M47.2445 51.072C44.2152 51.072 41.8258 50.688 40.0765 49.92C38.3698 49.1093 37.1325 48.0213 36.3645 46.656C35.6392 45.2907 35.2765 43.7333 35.2765 41.984C35.3192 40.192 35.5752 38.2933 36.0445 36.288L44.1725 2.304L54.0925 0.768005L45.1965 37.632C45.0258 38.4 44.9192 39.104 44.8765 39.744C44.8765 40.384 45.0045 40.96 45.2605 41.472C45.5165 41.9413 45.9432 42.3253 46.5405 42.624C47.1805 42.9227 48.0552 43.1147 49.1645 43.2L47.2445 51.072Z" fill="white"/>
<path d="M0.799988 50.432L11.424 6.08002H40.16L38.112 14.336H19.36L17.12 23.808H33.696L31.712 32.064H15.136L10.72 50.432H0.799988Z" fill="white"/>
</svg>
